<svg xmlns="http://www.w3.org/2000/svg" width="113.476" height="79.433" viewBox="0 0 113.476 79.433">
  <path id="Icon_awesome-users" data-name="Icon awesome-users" d="M17.021,36.293A11.348,11.348,0,1,0,5.674,24.945,11.358,11.358,0,0,0,17.021,36.293Zm79.433,0A11.348,11.348,0,1,0,85.107,24.945,11.358,11.358,0,0,0,96.454,36.293Zm5.674,5.674H90.781a11.314,11.314,0,0,0-8,3.3A25.935,25.935,0,0,1,96.1,64.662h11.7a5.668,5.668,0,0,0,5.674-5.674V53.314A11.358,11.358,0,0,0,102.128,41.967Zm-45.39,0A19.858,19.858,0,1,0,36.88,22.108,19.848,19.848,0,0,0,56.738,41.967ZM70.355,47.64H68.883a27.417,27.417,0,0,1-24.291,0H43.121A20.431,20.431,0,0,0,22.7,68.066v5.106a8.513,8.513,0,0,0,8.511,8.511H82.27a8.513,8.513,0,0,0,8.511-8.511V68.066A20.431,20.431,0,0,0,70.355,47.64ZM30.692,45.264a11.314,11.314,0,0,0-8-3.3H11.348A11.358,11.358,0,0,0,0,53.314v5.674a5.668,5.668,0,0,0,5.674,5.674H17.358A26,26,0,0,1,30.692,45.264Z" transform="translate(0 -2.25)" fill="#fe9817"/>
</svg>
