<svg id="Grupo_106" data-name="Grupo 106" xmlns="http://www.w3.org/2000/svg" width="82.614" height="79.433" viewBox="0 0 82.614 79.433">
  <path id="Trazado_117" data-name="Trazado 117" d="M761.461-2916.5l0,.022-1.023-14.12Z" transform="translate(-716.99 2944.238)" fill="#fe9817"/>
  <path id="Trazado_118" data-name="Trazado 118" d="M898.5-2869.5c.011-.112.018-.226.018-.342h0a.789.789,0,0,0-.1-.123.555.555,0,0,1,.057.128C898.482-2869.724,898.488-2869.612,898.5-2869.5Z" transform="translate(-822.152 2898.028)" fill="#fe9817"/>
  <path id="Trazado_119" data-name="Trazado 119" d="M764.761-2871.033c.007.051.013.1.018.154h.01c-.007,0-.02-.174-.038-.285Z" transform="translate(-720.273 2898.942)" fill="#fe9817"/>
  <path id="Trazado_120" data-name="Trazado 120" d="M834.756-2826.965H822.292c-.248,0-.472.119-.472.253v13.7c0,.135.224.313.472.313h12.464a.354.354,0,0,0,.382-.313v-13.7C835.138-2826.846,835-2826.965,834.756-2826.965Z" transform="translate(-763.771 2865.254)" fill="#fe9817"/>
  <path id="Trazado_121" data-name="Trazado 121" d="M711.51-2869.071h0c0-.011,0-.022,0-.033C711.512-2869.1,711.51-2869.071,711.51-2869.071Z" transform="translate(-679.695 2897.372)" fill="#fe9817"/>
  <path id="Trazado_122" data-name="Trazado 122" d="M717.424-2781.787h13.494c.269,0,.408-.073.408-.179v-10.846c0-.107-.14-.152-.408-.152H717.424c-.269,0-.6.045-.6.152v10.846C716.82-2781.859,717.156-2781.787,717.424-2781.787Z" transform="translate(-683.742 2839.341)" fill="#fe9817"/>
  <path id="Trazado_123" data-name="Trazado 123" d="M924.892-2869.963" transform="translate(-842.329 2898.027)" fill="#fe9817"/>
  <path id="Trazado_124" data-name="Trazado 124" d="M871.7-2869.861c0-.028,0-.1,0-.1h-.009A.93.93,0,0,1,871.7-2869.861Z" transform="translate(-801.783 2898.028)" fill="#fe9817"/>
  <path id="Trazado_125" data-name="Trazado 125" d="M711.523-2869.277c0,.012,0,.013,0,.024v-.024Z" transform="translate(-679.704 2897.503)" fill="#fe9817"/>
  <path id="Trazado_126" data-name="Trazado 126" d="M737.915-2869.292H737.9v-.1h-.077v.038h0v.063h.012c.019.122.044.243.073.361a3.119,3.119,0,0,0,.014-.369C737.918-2869.313,737.916-2869.292,737.915-2869.292Z" transform="translate(-699.748 2897.593)" fill="#fe9817"/>
  <path id="Trazado_127" data-name="Trazado 127" d="M623.17-2812.7h12.463c.248,0,.5-.087.5-.222v-13.7c0-.135-.256-.345-.5-.345H623.17a.345.345,0,0,0-.35.345v13.7C622.82-2812.782,622.922-2812.7,623.17-2812.7Z" transform="translate(-612.097 2865.254)" fill="#fe9817"/>
  <path id="Trazado_128" data-name="Trazado 128" d="M659-2962.234l-4.432-7.758-4.878-8.222h4.763l.116-.058v-1.845h1.014a.475.475,0,0,0,.413-.5v-4.084a.4.4,0,0,0-.413-.414h-1.014v-.6a2.314,2.314,0,0,0-2.225-2.254H584.807a2.174,2.174,0,0,0-2.059,2.254v.6h-1.181a.464.464,0,0,0-.484.414v4.084a.537.537,0,0,0,.484.5h.943v1.9H587.3l-4.551,8.851-3.726,7.122-.044.034-1.245,2.4m82.614-.179-82.6.179a3.3,3.3,0,0,0,3.25,3.236,3.068,3.068,0,0,0,1.752-.542v40.734h-1.133a1.471,1.471,0,0,0-1.483,1.415v5.121a1.22,1.22,0,0,0,.077.431q.369.378.745.748a1.685,1.685,0,0,0,.661.134H655.7a1.392,1.392,0,0,0,1.488-1.312v-5.121a1.476,1.476,0,0,0-1.488-1.415h-1.128v-41.867a1.663,1.663,0,0,1-.493-1.19,3.063,3.063,0,0,1-3.036,2.835,3.336,3.336,0,0,1-3.367-3.152v-.019a3.071,3.071,0,0,1-3.037,3.173,3.353,3.353,0,0,1-3.307-2.968,3,3,0,0,1-3.011,2.97,3.231,3.231,0,0,1-3.249-3.151v.017s-.057,0-.057,0a3.093,3.093,0,0,1-3.112,3.141,3.313,3.313,0,0,1-3.294-3.151c0,.006,0,.011,0,.017s0,0,0-.007a3.061,3.061,0,0,1-3.07,3.142,3.3,3.3,0,0,1-3.285-3.15c0,.006-.007.011-.006.017s-.013-.005-.013-.008a3.1,3.1,0,0,1-3.106,3.152,3.4,3.4,0,0,1-3.234-2.718,3.027,3.027,0,0,1-3.081,2.728,3.251,3.251,0,0,1-3.257-3.131v.042h0a3.086,3.086,0,0,1-3.107,3.109,3.22,3.22,0,0,1-3.245-3.109h0a3.112,3.112,0,0,1-3.119,3.111,3.205,3.205,0,0,1-3.233-3.111h-.019l.023-.138.368-1.439,0,0,4.5-16.969h4.786l-3.109,17.4a10.849,10.849,0,0,0-.2,1.155l6.349-.043c0,.013,0-.02,0-.006s0,.011,0,.017,0,0,0,0,0-.009,0-.016h0c0-.029.06-.689.06-.689v0l1.7-17.808h4.775v0h0l-.005.493-.18,17.82h-.02l-6.33.159,6.253-.031,6.358-.006.01-.568,0-.012-1.233-17.38-.034-.474h4.8s2.385,16.363,2.776,17.727l.092.585h.033s0,.012,0,0h6.331l-.234-.973c-.009-.021-.017-.044-.026-.064l-4.174-17.276h4.8l5.963,18.313h.04s0,.012,0,0h6.335l-.715-1.745-.037-.047-6.789-16.521h4.72v-.013l.052.013h.024l9.057,18.313H660.3l-1.35-2.333m-25.3,27.78h.951v-16.291a.414.414,0,0,1,.458-.357h14.871c.3,0,.605.2.605.357v16.291h.951v1.427H633.643Zm-24.734-8.562c0-.257.294-.476.637-.476h17.235c.343,0,.678.219.678.476v26.165c0,.258-.335.471-.678.471H609.546c-.343,0-.637-.213-.637-.471Zm40.8-35.258v.05h-.018l-.029-.05Zm-4.816,0v.05h0v0l-.023-.047Zm-4.816,0h.045v.05h-.045Zm-4.771,0v.05H635.3l-.016-.05Zm-4.816,0h.043v.05h-.043Zm-4.773,0v.05h-.013l-.008-.05Zm-23.247,27.41c.3,0,.49.05.49.21v16.2h.951v1.427H586.078v-1.427h.951v-16.2c0-.161.277-.21.573-.21Zm-12.017-8.9h6.351a3.106,3.106,0,0,1-3.132,3.095A3.211,3.211,0,0,1,590.457-2959.763Zm-3.131-18.511v.05H587.3Zm3.1,18.511-.017.1h.043a3.158,3.158,0,0,1-3.111,3.14,3.348,3.348,0,0,1-3.247-3.284l.953-2.188a.2.2,0,0,1,.024-.016l0-.006c-.009.007-.018.013-.027.021l7.055-16.217h4.8l-5.8,16.474,0,0-.646,1.836-.008.021-.023.066m-6.3,0-.011.025" transform="translate(-577.734 2987.965)" fill="#fe9817"/>
</svg>
