<svg id="Grupo_107" data-name="Grupo 107" xmlns="http://www.w3.org/2000/svg" width="124.196" height="100.583" viewBox="0 0 124.196 100.583">
  <path id="Trazado_132" data-name="Trazado 132" d="M687.526-2196.2,663.3-2215.364v-17.156a4.892,4.892,0,0,0-4.73-4.992H646.167a4.888,4.888,0,0,0-4.8,4.606l-10.1-7.92a5.8,5.8,0,0,0-7.215,0L567.747-2196.2a5.81,5.81,0,0,0-.942,8.163,5.8,5.8,0,0,0,8.159.943l52.7-41.763,52.693,41.763a5.78,5.78,0,0,0,8.141-.943A5.816,5.816,0,0,0,687.526-2196.2Z" transform="translate(-565.547 2242.083)" fill="#fe9817"/>
  <path id="Trazado_133" data-name="Trazado 133" d="M662.394-2172.076l-35.454,27.244-8.339,6.4v24.008c0,18.766,18.768,18.753,18.768,18.753h12.659v-28.255s-.078-12.512,12.434-12.512,12.432,12.512,12.432,12.512v28.255h12.523c18.765,0,18.9-18.753,18.9-18.753v-24.008l-8.411-6.4Z" transform="translate(-600.278 2196.254)" fill="#fe9817"/>
</svg>
