<svg xmlns="http://www.w3.org/2000/svg" width="85.716" height="79.433" viewBox="0 0 85.716 79.433">
  <path id="Trazado_140" data-name="Trazado 140" d="M800.472,864.377q-2.284-8.25-4.411-16.543a8.671,8.671,0,0,0-4.7-5.834q-14.659-7.478-29.3-14.985a8.524,8.524,0,0,0-8.209-.051q-14.771,7.554-29.545,15.1a8.448,8.448,0,0,0-4.544,5.647q-1.877,7.252-3.846,14.48c-1.539,5.635-1.48,6.552,3.508,9.427,4.4,2.534,7.16,5.454,5.671,9.971,0,8.427.383,9.989,3.076,13.216a22.662,22.662,0,0,0,7.4,5.647c8.985,4.516,18.58,5.538,28.417,4.588a41.277,41.277,0,0,0,18.918-6.133c5.21-3.392,8.679-7.875,7.75-14.436-.916-6.463.865-11.235,7.226-13.741a2.333,2.333,0,0,0,.442-.3A5.077,5.077,0,0,0,800.472,864.377Zm-52.313-18.962a2.245,2.245,0,0,1,2.524-1.856c2.405.03,4.811.009,7.216.006,2.316,0,4.635.066,6.948-.025,1.864-.073,2.853.723,3.075,2.539.3,2.475.625,4.948.887,7.427a6.6,6.6,0,0,1-1.26,4.27,37.914,37.914,0,0,1-8.048,8.5,2.3,2.3,0,0,1-3.353-.1c-1.329-1.186-2.575-2.477-3.978-3.565C746.153,857.951,746.555,851.839,748.159,845.415Zm33.9,38.831a3.348,3.348,0,0,1-4.277-1.86c-.7-1.7-1.986-2.157-3.424-2.6a55.367,55.367,0,0,0-32.974.006,4.873,4.873,0,0,0-3.414,2.61c-.977,2.01-2.922,2.586-5.015,1.508a3.579,3.579,0,0,1-1.817-4.773,3.381,3.381,0,0,1,4.5-2.291,6.524,6.524,0,0,0,4.359-.215,57.3,57.3,0,0,1,36.069.1,5.738,5.738,0,0,0,3.846.171,3.826,3.826,0,1,1,2.149,7.341Z" transform="translate(-715.022 -825.935)" fill="#fe9817"/>
</svg>
