<svg xmlns="http://www.w3.org/2000/svg" width="54.878" height="141.732" viewBox="0 0 54.878 141.732">
  <path id="Trazado_16" data-name="Trazado 16" d="M342.69,1966.413c3.493-27.59,9.923-37.007,9.923-37.007a15.423,15.423,0,1,0,6.864-29.231c-8.508,0-14.03,7.014-15.42,15.42-2.848,17.229-10.816,32.036-11.718,50.818-.143,2.975-3.355,21.018,11.361,60.074,3,7.962,6.9,15.419,15.42,15.419a15.425,15.425,0,0,0,0-30.851c-2.324,0-6.393,1.819-8.371,2.737,0,0-5.644-10.351-8.055-34.128A116.068,116.068,0,0,1,342.69,1966.413Zm9.566,60.074a6.864,6.864,0,1,1,6.864,6.864A6.858,6.858,0,0,1,352.255,2026.488Zm-11.046-80.864,0,52.48M379,1986.044v-28.361h7.829v28.361Zm-11.25,4.826v-38.013h7.817v38.013ZM357.07,1998.1v-52.48h7.817v52.48Zm2.407-75.645a6.864,6.864,0,1,1,6.875-6.864A6.865,6.865,0,0,1,359.477,1922.458Z" transform="translate(-331.946 -1900.175)" fill="#fd1716"/>
</svg>

