<svg xmlns="http://www.w3.org/2000/svg" width="631.647" height="492.609" viewBox="0 0 631.647 492.609">
  <path id="Icon_map-lawyer" data-name="Icon map-lawyer" d="M3.727,277.107a81.571,81.571,0,0,0,161.765,0ZM444.453,441.322a12.633,12.633,0,0,1-12.608,12.671H196.164a12.608,12.608,0,1,1,0-25.215H431.832A12.576,12.576,0,0,1,444.453,441.322ZM184.908,460.449h258.18V496.92H184.909ZM466.156,277.107a81.531,81.531,0,0,0,161.715,0Zm157.268-25.38-66.235-91.235H592.6a15.716,15.716,0,0,0,0-31.431H405.025a92.89,92.89,0,0,0-71.174-59.779V20.051A15.684,15.684,0,0,0,318.123,4.311l-1.465.164-1.465-.164a15.665,15.665,0,0,0-15.7,15.741V69.257a92.827,92.827,0,0,0-71.149,59.779H40.729a15.717,15.717,0,0,0,0,31.431H74.522L8.275,251.7H0v16.852H169.256V251.7h-8.312l-66.222-91.21h153.73a66.586,66.586,0,0,1,.922-10.41,14.849,14.849,0,0,0,.91-4.838,67.157,67.157,0,0,1,49.205-49.685V268.592h-.657c-1.352,65.085-32.315,121.845-78.249,153.743h192.2c-45.946-31.9-76.884-88.658-78.312-153.743h-.606V95.558a67.144,67.144,0,0,1,49.193,49.685,15.968,15.968,0,0,0,.947,4.838,70.034,70.034,0,0,1,.821,10.41H536.951L470.7,251.727h-8.262v16.852H631.648V251.727Zm-545.541,0H25.013L77.882,178.9v72.829Zm13.53,0V178.9l52.869,72.829H91.412Zm448.874,0H487.392L540.286,178.9Zm13.467,0V178.9l52.932,72.829ZM100.318,107.105A15.7,15.7,0,1,1,84.653,91.364a15.7,15.7,0,0,1,15.665,15.741Zm462.417-.834a15.7,15.7,0,1,1-7.658-14.123A15.617,15.617,0,0,1,562.735,106.271Z" transform="translate(0 -4.311)" fill="#fff" opacity="0.21"/>
</svg>
