<svg xmlns="http://www.w3.org/2000/svg" xmlns:xlink="http://www.w3.org/1999/xlink" width="366.843" height="428.552" viewBox="0 0 366.843 428.552">
  <defs>
    <clipPath id="clip-path">
      <path id="Trazado_158" data-name="Trazado 158" d="M1039.526,3028.705v164.368s.225,30.737-28.56,30.737-399.992-19.443-399.992-19.443V3048.636l428.552-191.668Z" transform="translate(215)" fill="none" stroke="#707070" stroke-width="1"/>
    </clipPath>
    <filter id="Trazado_155" x="-231.117" y="-22.643" width="560.85" height="499.502" filterUnits="userSpaceOnUse">
      <feOffset dy="-10" input="SourceAlpha"/>
      <feGaussianBlur stdDeviation="5" result="blur"/>
      <feFlood flood-opacity="0.2"/>
      <feComposite operator="in" in2="blur"/>
      <feComposite in="SourceGraphic"/>
    </filter>
    <filter id="Trazado_156" x="-254.015" y="-14.966" width="570.038" height="503.758" filterUnits="userSpaceOnUse">
      <feOffset dy="3" input="SourceAlpha"/>
      <feGaussianBlur stdDeviation="3" result="blur-2"/>
      <feFlood flood-opacity="0.161"/>
      <feComposite operator="in" in2="blur-2"/>
      <feComposite in="SourceGraphic"/>
    </filter>
    <linearGradient id="linear-gradient" x1="0.72" y1="0.802" x2="0.028" y2="0.066" gradientUnits="objectBoundingBox">
      <stop offset="0" stop-color="#ffa617"/>
      <stop offset="1" stop-color="#fd1716"/>
    </linearGradient>
    <filter id="Trazado_157" x="-270.537" y="-24.647" width="571.283" height="514.602" filterUnits="userSpaceOnUse">
      <feOffset dy="3" input="SourceAlpha"/>
      <feGaussianBlur stdDeviation="3" result="blur-3"/>
      <feFlood flood-opacity="0.161"/>
      <feComposite operator="in" in2="blur-3"/>
      <feComposite in="SourceGraphic"/>
    </filter>
  </defs>
  <g id="Enmascarar_grupo_1" data-name="Enmascarar grupo 1" transform="translate(3223.811 -825.974) rotate(90)" clip-path="url(#clip-path)">
    <g id="Grupo_126" data-name="Grupo 126" transform="translate(1196.87 2767.609) rotate(65)">
      <g transform="matrix(-0.91, -0.42, 0.42, -0.91, 256.71, 528.95)" filter="url(#Trazado_155)">
        <path id="Trazado_155-2" data-name="Trazado 155" d="M501.688,435.568,396.871,49S387.478,8.768,316.5,9.313C229.638,9.98,35.363,0,35.363,0L0,408.891Z" transform="translate(-216.12 37.35) rotate(-4)" fill="#fd1716"/>
      </g>
      <g transform="matrix(-0.91, -0.42, 0.42, -0.91, 256.71, 528.95)" filter="url(#Trazado_156)">
        <path id="Trazado_156-2" data-name="Trazado 156" d="M521.887,450.45,404.424,76.029S395.031,35.8,324.058,36.342C237.191,37.009,0,0,0,0L7.553,435.92Z" transform="translate(-245.02 27.44) rotate(-4)" fill="#fe5e11"/>
      </g>
      <g transform="matrix(-0.91, -0.42, 0.42, -0.91, 256.71, 528.95)" filter="url(#Trazado_157)">
        <path id="Trazado_157-2" data-name="Trazado 157" d="M522.378,461.286l-124.829-360.2S388.156,60.855,317.182,61.4C230.316,62.067,0,0,0,0L.677,460.978Z" transform="translate(-261.54 17.79) rotate(-4)" fill="url(#linear-gradient)"/>
      </g>
    </g>
  </g>
</svg>
