<svg xmlns="http://www.w3.org/2000/svg" width="89.362" height="79.433" viewBox="0 0 89.362 79.433">
  <path id="Icon_awesome-shopping-cart" data-name="Icon awesome-shopping-cart" d="M81.934,46.747l7.334-32.27a3.723,3.723,0,0,0-3.631-4.549H24.7L23.278,2.977A3.723,3.723,0,0,0,19.63,0H3.723A3.723,3.723,0,0,0,0,3.723V6.206A3.723,3.723,0,0,0,3.723,9.929H14.565l10.9,53.281a8.689,8.689,0,1,0,10.4,1.329H68.39a8.686,8.686,0,1,0,9.867-1.614l.856-3.766a3.723,3.723,0,0,0-3.631-4.549H33.839l-1.015-4.965H78.3A3.723,3.723,0,0,0,81.934,46.747Z" fill="#fe9817"/>
</svg>
